<svg width="44" height="44" viewBox="0 0 44 44" fill="none" xmlns="http://www.w3.org/2000/svg">
<path d="M22 0C9.85 0 0 9.85 0 22C0 34.15 9.85 44 22 44C34.15 44 44 34.15 44 22C44 9.85 34.15 0 22 0ZM36.447 19.895L35.342 20.448L35.895 21.553C36.142 22.047 35.942 22.648 35.448 22.895C35.304 22.966 35.151 23 35.001 23C34.634 23 34.281 22.798 34.105 22.447L33.552 21.342L31.341 22.447L31.894 23.552C32.141 24.046 31.941 24.647 31.447 24.894C31.304 24.966 31.151 25 31.001 25C30.634 25 30.281 24.798 30.105 24.447L29.552 23.342L25.341 25.447L25.894 26.552C26.141 27.046 25.941 27.647 25.447 27.894C25.304 27.966 25.151 28 25.001 28C24.634 28 24.281 27.798 24.105 27.447L23.552 26.342L21.341 27.447L21.894 28.552C22.141 29.046 21.941 29.647 21.447 29.894C21.304 29.966 21.151 30 21.001 30C20.634 30 20.281 29.798 20.105 29.447L19.552 28.342L17.341 29.447L17.894 30.552C18.141 31.046 17.941 31.647 17.447 31.894C17.304 31.966 17.151 32 17.001 32C16.634 32 16.281 31.798 16.105 31.447L15.552 30.342L13.341 31.447L13.894 32.552C14.141 33.046 13.941 33.647 13.447 33.894C13.304 33.966 13.151 34 13.001 34C12.634 34 12.281 33.798 12.105 33.447L11.552 32.342L8.447 33.895C8.306 33.965 8.153 34 8 34C7.817 34 7.635 33.95 7.474 33.851C7.18 33.668 7 33.347 7 33C7 29.907 8.163 24.124 15.825 19.637C15.753 17.929 16.035 13.567 20.432 11.148C20.739 10.979 21.113 10.983 21.415 11.158C21.718 11.334 21.907 11.655 21.914 12.005L21.949 13.891L22.313 13.287C22.591 12.826 23.186 12.668 23.656 12.93C23.677 12.942 25.807 14.111 27.797 14.111C28.97 14.111 30.58 13.774 31.011 10.854C31.083 10.364 31.504 10 32 10C32.145 10 33.45 10.036 34.707 11.292C36.229 12.814 37 15.407 37 19C37 19.379 36.786 19.725 36.447 19.895Z" fill="black"/>
</svg>
