<svg width="1810" height="2193" viewBox="0 0 1810 2193" fill="none" xmlns="http://www.w3.org/2000/svg">
<path d="M898.125 33.5C877.375 63.375 833.625 111.5 796.875 145C662.875 267 510.25 334.625 343.125 346.375C316.75 348.25 255.25 347.125 230 344.5C165.625 337.625 119.875 327.625 44.75 304.25C38.875 302.375 33.125 301.25 32.25 301.625C31 302 29.625 308.5 27.625 323.875C3.37497 511.75 6.49997 695.125 37 872.5C74.875 1093.12 154.875 1305.75 275.625 1506.88C419.25 1745.88 623.875 1970.12 860.875 2147.88C892.125 2171.38 902.625 2178.75 904.625 2178.75C909.625 2178.75 1003.12 2106.75 1056.25 2062C1075.12 2046 1115 2010.88 1128.75 1998.12C1132.5 1994.62 1144.38 1983.62 1155 1973.62C1165.62 1963.75 1187.62 1942.38 1203.88 1926.12C1496.88 1632.88 1690.88 1283.88 1763.5 919.375C1779.38 839.75 1788.75 768.375 1795.12 676.875C1797.25 646.75 1798 525 1796.38 488.625C1793.88 434.375 1789.62 385 1783.12 332.5C1779.25 302 1779.12 301.25 1776.38 301.25C1775.25 301.25 1769.25 303 1763 305C1735.12 314.5 1693.25 325.75 1660.62 332.375C1565.88 351.875 1466.62 352.5 1376.62 334.375C1271 313 1168 266.125 1076.75 197.875C1015 151.625 954.125 91.375 913.25 35.875C909.375 30.625 905.5 26.25 904.625 26.25C903.75 26.375 900.875 29.5 898.125 33.5ZM913 151.25C925.25 166 957 198.125 974.875 214.25C1065 294.875 1169 352.5 1283.62 385.625C1410.38 422.125 1549.12 427.25 1692.38 400.5C1714.25 396.375 1716.88 396.125 1718.12 397.875C1719.62 399.875 1722.5 427 1725.62 467.5C1732.25 553.75 1731 655.25 1722.5 743.75C1697.75 997.875 1614.88 1244.12 1476.25 1475.12C1358.12 1671.88 1201.25 1853.5 1018.12 2005.75C978.875 2038.25 908.25 2092.5 905.125 2092.5C901.5 2092.5 831.875 2039.25 789.375 2003.88C740.125 1962.88 701.375 1927.62 653.375 1880.12C475.125 1703.62 335.875 1507 237.25 1292.75C110 1015.88 59.125 723.875 86.875 429.375C90.375 393.375 89.75 395.875 94.25 396.625C96.375 397 105.875 398.75 115.375 400.5C179.875 412.625 226.75 416.75 294.375 416.75C354.375 416.75 383.25 414.5 436.875 405.5C544.125 387.625 648.375 346.625 741.875 285.375C800.875 246.625 861 194.25 897.5 149.625C901.25 145 904.375 141.25 904.5 141.25C904.5 141.25 908.375 145.75 913 151.25Z" fill="black"/>
<path d="M880.625 218.5C784.875 312.875 664.125 382.625 531.375 420.625C409.625 455.25 278.125 462.375 145.375 441.125C136.875 439.875 128.125 438.75 125.625 438.75C121.75 438.75 121.25 439.125 121.25 442.125C121.25 444.125 120.375 456.625 119.375 470C112.25 566.75 114.25 669.5 125.125 768.125C128.125 796.125 135.75 849.375 136.875 851.25C137.375 852.125 380.5 852.5 905 852.5H1672.5L1673 849.625C1678.13 826 1687.25 745.5 1691.5 686.875C1694.13 651.125 1693.75 516.25 1690.88 477.5C1689.75 460.625 1688.38 445 1688 442.625L1687.38 438.5L1680.88 439.125C1677.25 439.5 1664.88 441.125 1653.13 442.875C1545.25 458.875 1434.88 456 1334 434.25C1184.75 402.25 1047.63 330.5 936.75 226.5C925.75 216.25 914.75 205.25 912.125 202.125C909.5 198.875 906.375 196.25 905.25 196.25C904.125 196.25 893 206.25 880.625 218.5ZM467.5 513.625C498.625 520.75 527.25 535.625 543.25 552.75C547 556.875 550 560.75 549.75 561.375C549.5 562 537 570.125 522 579.375L494.625 596.125L489.625 590.5C478.25 577.5 462.875 571.25 440 570.25C431.375 569.875 422.875 570.25 418.875 571.125C401.5 574.875 387.75 585.875 379.125 603.375C371.25 619.125 369.375 629.125 369.5 655C369.625 675 369.875 677.875 373 688.125C374.875 694.25 377.875 701.875 379.625 705C385.125 714.375 397.125 725.875 406.125 730.25C413.625 734 415.25 734.375 429.875 734.75C447.375 735.25 457.875 733.5 469.375 728.125C477.75 724.125 487.75 715.25 492 708C494.875 703 495.5 702.625 497.875 704C500.25 705.125 540.75 730.125 549.75 735.75C552.375 737.5 552.5 737.75 550.5 741.375C547.625 747 530.375 764.625 522.5 770C486 794.75 435.375 801.875 393.125 788.125C365.875 779.25 342.375 762.375 326.875 740.625C319.625 730.5 308.375 707 305 695C296.5 664.5 297 634.875 306.375 605.5C314.125 581.25 325.25 563.5 343.125 546.5C363.625 527.25 387 516 417.125 511.25C428.125 509.5 455.25 510.75 467.5 513.625ZM1302.5 517.75C1303.13 519.375 1313.25 557.5 1325 602.5C1351.5 703.75 1349.63 697.5 1351.88 697.5C1352.88 697.5 1353.75 697.125 1353.75 696.75C1353.75 695 1398.88 520.5 1400 517.75L1401.25 515H1451.75C1492.75 515 1502.5 515.375 1503.63 516.75C1504.63 518 1504.88 554.75 1504.75 653.875L1504.38 789.375L1473.25 789.75C1451.38 790 1441.63 789.625 1440.5 788.625C1439 787.375 1438.75 773.5 1438.75 706.875C1438.75 618.875 1437.88 585 1435.75 585C1435 585 1421.63 631 1406.13 687.25L1377.88 789.375L1352.13 789.75C1328.5 790 1326.25 789.875 1325.25 787.875C1324.63 786.625 1311.63 740.875 1296.38 686.25C1281.13 631.625 1268.25 585.875 1268 584.625C1267.63 583.5 1266.5 582.5 1265.5 582.5C1264 582.5 1263.75 597.375 1263.5 685.875L1263.13 789.375L1232 789.75C1210.13 790 1200.38 789.625 1199.25 788.625C1197.75 787.375 1197.5 765.125 1197.5 651.875C1197.5 577.5 1197.88 516.25 1198.38 515.875C1198.75 515.375 1222.13 515 1250.25 515H1301.25L1302.5 517.75ZM914.125 521.25C915.25 523.625 937.625 583 963.75 653.125C989.875 723.25 1011.88 781.875 1012.5 783.5C1015.38 790.25 1016.5 790 979.5 790C953 790 945 789.625 944 788.375C943.25 787.5 939 776.375 934.625 763.75L926.75 740.625L877.375 740.25L828 740L819.375 765L810.625 790H776.5C748.25 790 742.25 789.75 741.75 788.25C741 786.25 739.875 789.25 783.75 671.875C801.75 623.75 821.875 570 828.375 552.5C834.875 535 840.75 519.75 841.375 518.5C842.5 516.375 845 516.25 877.25 516.5L911.875 516.875L914.125 521.25Z" fill="black"/>
<path d="M872.75 600.25C849.75 671.25 845 686 845 687.25C845 688.375 853 688.75 876.875 688.75C906 688.75 908.75 688.625 908.75 686.625C908.75 685.5 904.5 671.25 899.25 655.125C894 638.875 887.375 618.375 884.5 609.375C878.25 589.875 876.5 588.5 872.75 600.25Z" fill="black"/>
<path d="M146.25 902.5C146.25 910.125 164.875 989.625 175.625 1027.75C217.25 1175.5 280.5 1320.75 362.25 1456.25C388.375 1499.62 423.25 1552.5 425.75 1552.5C427.25 1552.5 427.5 1500.5 427.5 1226.25V900H286.875C148.125 900 146.25 900 146.25 902.5Z" fill="black"/>
<path d="M476.25 1262.62V1625.25L488.375 1641C535.625 1702.88 585.5 1760.5 646.75 1824.25C676.875 1855.62 727 1903.75 729.5 1903.75C731 1903.75 731.25 1837.75 731.25 1401.88V900H603.75H476.25V1262.62Z" fill="black"/>
<path d="M778.75 1424.88V1949.75L804.75 1971.5C853.5 2012.5 900.375 2048.75 904.625 2048.75C907.25 2048.75 912.625 2044.88 943.75 2020.75C966.875 2002.75 990.75 1983.38 1014.88 1963L1032.5 1948.12V1424V900H905.625H778.75V1424.88Z" fill="black"/>
<path d="M1081.25 1400.62C1081.25 1853.75 1081.38 1901.25 1083.25 1901.25C1085.75 1901.25 1180.12 1807 1203.88 1780.62C1248.62 1731.25 1282.88 1690.38 1321 1640.88L1336.25 1621.12V1260.5V900H1208.75H1081.25V1400.62Z" fill="black"/>
<path d="M1385 1223.75C1385 1499.62 1385.25 1547.5 1386.75 1547.5C1389.62 1547.5 1432.5 1481 1459.62 1434.38C1544.38 1288.88 1607.25 1135.75 1645.62 981.25C1654.38 946.375 1661.38 914.75 1662.12 906.5L1662.88 900H1523.88H1385V1223.75Z" fill="black"/>
</svg>
